<?xml version="1.0" standalone="no"?>
<!DOCTYPE svg PUBLIC "-//W3C//DTD SVG 20010904//EN"
 "http://www.w3.org/TR/2001/REC-SVG-20010904/DTD/svg10.dtd">
<svg version="1.0" xmlns="http://www.w3.org/2000/svg"
 width="180.000000pt" height="180.000000pt" viewBox="0 0 180.000000 180.000000"
 preserveAspectRatio="xMidYMid meet">
<metadata>
Created by potrace 1.15, written by Peter Selinger 2001-2017
</metadata>
<g transform="translate(0.000000,180.000000) scale(0.100000,-0.100000)"
fill="#000000" stroke="none">
<path d="M260 1123 c0 -83 -1 -85 -18 -70 -12 11 -36 17 -67 17 -39 0 -54 -5
-77 -27 l-28 -27 0 -143 c0 -132 2 -146 22 -173 20 -28 27 -30 83 -30 34 0 66
5 73 12 9 9 12 9 12 0 0 -8 21 -12 65 -12 l65 0 0 270 0 270 -65 0 -65 0 0
-87z"/>
<path d="M800 940 l0 -270 70 0 70 0 0 270 0 270 -70 0 -70 0 0 -270z"/>
<path d="M457 1042 c-27 -28 -27 -29 -27 -172 0 -143 0 -144 27 -172 26 -27
29 -28 138 -28 104 0 113 2 133 23 18 19 22 35 22 95 0 81 4 78 -84 66 -44 -6
-46 -8 -46 -40 0 -30 -3 -34 -25 -34 -25 0 -25 1 -25 90 0 89 0 90 25 90 21 0
25 -5 25 -30 0 -27 3 -29 28 -25 15 2 44 7 65 10 l37 6 0 53 c0 42 -5 57 -23
74 -21 20 -34 22 -133 22 -108 0 -111 -1 -137 -28z"/>
<path d="M1130 870 l0 -200 70 0 70 0 0 145 0 145 45 0 45 0 0 55 0 55 -33 0
c-18 0 -38 -5 -45 -12 -9 -9 -12 -9 -12 0 0 8 -22 12 -70 12 l-70 0 0 -200z"/>
<path d="M1407 1042 c-27 -28 -27 -29 -27 -172 0 -143 0 -144 27 -172 26 -27
29 -28 138 -28 109 0 112 1 138 28 21 21 27 38 27 70 l0 42 -70 0 c-56 0 -70
-3 -70 -15 0 -10 -10 -15 -30 -15 -25 0 -30 4 -30 24 0 28 12 32 123 42 l77 7
0 80 c0 74 -2 83 -27 109 -26 27 -29 28 -138 28 -109 0 -112 -1 -138 -28z"/>
<path d="M970 735 l0 -65 70 0 70 0 0 65 0 65 -70 0 -70 0 0 -65z"/>
</g>
</svg>
